<svg height="640" viewBox="0 0 480 480.00842" width="640" xmlns="http://www.w3.org/2000/svg" fill="#fff"><path d="M440.004 0h-400c-22.055 0-40 17.945-40 40v296c0 22.055 17.945 40 40 40h240v96a8.004 8.004 0 0 0 3.328 6.496 7.979 7.979 0 0 0 7.207 1.098l45.465-15.16 45.473 15.16a8.13 8.13 0 0 0 2.527.406 7.984 7.984 0 0 0 4.672-1.504 8.004 8.004 0 0 0 3.328-6.496v-96h48c22.055 0 40-17.945 40-40V40c0-22.055-17.945-40-40-40zm24 40v15.281C443.949 51.887 428.117 36.055 424.723 16h15.28c13.231 0 24 10.77 24 24zm-424-24h15.281C51.891 36.055 36.06 51.887 16.004 55.281V40c0-13.23 10.77-24 24-24zm-24 320v-15.281C36.059 324.105 51.89 339.945 55.285 360H40.004c-13.23 0-24-10.77-24-24zm248.871-97.512c2.473-3.52 5.035-7.168 6.441-11.504 1.465-4.496 1.559-9.257 1.657-13.472.086-4.078.175-8.305 1.543-10.176 1.402-1.93 5.418-3.32 9.296-4.664 3.961-1.375 8.442-2.93 12.231-5.688 3.746-2.726 6.578-6.488 9.074-9.8 2.488-3.305 5.063-6.72 7.399-7.48 2.097-.696 6.113.503 9.976 1.671 4.07 1.234 8.688 2.625 13.512 2.625s9.45-1.39 13.52-2.625c3.855-1.16 7.863-2.367 9.976-1.672 2.336.762 4.902 4.168 7.39 7.48 2.497 3.313 5.337 7.075 9.075 9.801 3.785 2.758 8.27 4.313 12.222 5.68 3.88 1.352 7.899 2.742 9.313 4.68 1.367 1.87 1.457 6.097 1.543 10.176.09 4.199.191 8.968 1.656 13.464 1.41 4.336 3.969 7.985 6.442 11.504 2.382 3.414 4.863 6.953 4.863 9.512s-2.48 6.098-4.871 9.512c-2.473 3.52-5.031 7.168-6.442 11.504-1.464 4.496-1.558 9.257-1.656 13.472-.086 4.078-.176 8.305-1.543 10.176-1.398 1.93-5.414 3.32-9.297 4.664-3.96 1.375-8.437 2.93-12.23 5.688-3.746 2.726-6.578 6.488-9.074 9.8-2.489 3.305-5.063 6.72-7.399 7.48-2.105.696-6.113-.51-9.976-1.671-4.07-1.234-8.688-2.625-13.512-2.625s-9.45 1.39-13.52 2.625c-3.855 1.16-7.863 2.375-9.976 1.672-2.336-.762-4.903-4.168-7.39-7.48-2.497-3.313-5.337-7.075-9.075-9.801-3.781-2.758-8.27-4.313-12.223-5.68-3.879-1.352-7.894-2.742-9.312-4.68-1.367-1.87-1.457-6.097-1.543-10.176-.09-4.199-.192-8.968-1.656-13.464-1.41-4.336-3.97-7.985-6.442-11.504-2.383-3.414-4.863-6.953-4.863-9.512s2.48-6.098 4.871-9.512zm73.656 209.926a8.07 8.07 0 0 0-5.062 0l-37.465 12.48V327.048c3.016 3.555 6.578 6.848 11.559 8.465 6.89 2.23 13.601.207 19.53-1.567 3.321-1 6.446-1.945 8.91-1.945s5.595.945 8.907 1.937c4.063 1.223 8.492 2.56 13.094 2.56 2.113 0 4.266-.282 6.434-.985 4.984-1.617 8.55-4.918 11.566-8.465v133.848zm53.473-135.43c.496-.175.93-.351 1.441-.527 5.918-2.05 12.633-4.379 16.993-10.367 4.32-5.938 4.472-13.012 4.605-19.25.074-3.406.145-6.617.875-8.871.664-2.059 2.437-4.586 4.316-7.258 3.457-4.95 7.77-11.094 7.77-18.711s-4.313-13.762-7.777-18.703c-1.872-2.672-3.645-5.2-4.317-7.258-.73-2.254-.8-5.473-.875-8.863-.137-6.238-.285-13.32-4.605-19.246-4.352-5.993-11.075-8.32-17-10.387-3.184-1.102-6.196-2.145-8.059-3.504-1.816-1.32-3.703-3.832-5.71-6.496-3.802-5.04-8.106-10.75-15.231-13.063-6.875-2.214-13.602-.199-19.532 1.567-3.3 1.008-6.43 1.953-8.894 1.953s-5.59-.945-8.902-1.938c-5.93-1.789-12.649-3.804-19.532-1.574-7.133 2.313-11.437 8.024-15.23 13.063-2 2.664-3.895 5.168-5.711 6.496-1.863 1.36-4.871 2.402-8.059 3.504-.406.144-.84.312-1.254.457H152.004v16h106.648c-1.382 4.367-1.593 8.945-1.68 13.168-.074 3.41-.144 6.617-.87 8.87-.665 2.06-2.442 4.587-4.32 7.259-3.466 4.933-7.778 11.078-7.778 18.695s4.312 13.762 7.777 18.703c1.871 2.672 3.649 5.2 4.32 7.258.727 2.254.797 5.473.872 8.863.136 6.238.289 13.32 4.609 19.246 4.352 5.992 11.07 8.32 17 10.387.504.176.941.352 1.43.52V360H71.453c-3.633-28.895-26.555-51.816-55.45-55.45V71.45C44.899 67.815 67.82 44.894 71.454 16h337.11c3.625 28.895 26.554 51.816 55.449 55.45v233.109c-28.895 3.625-51.817 26.554-55.45 55.449h-16.558zm48 47.016h-15.281c3.386-20.055 19.226-35.887 39.28-39.281V336c0 13.23-10.769 24-24 24zm0 0"/><path d="M336.004 304c30.879 0 56-25.129 56-56s-25.121-56-56-56-56 25.129-56 56 25.121 56 56 56zm0-96c22.055 0 40 17.945 40 40s-17.945 40-40 40-40-17.945-40-40 17.945-40 40-40zm-240-144h288v16h-288zm48 40h192v16h-192zm-88 160h160v16h-160zm32 40h96v16h-96zm256 48h16v16h-16zm0 32h16v16h-16zm0 32h16v16h-16zm0 0"/></svg>