<svg xmlns="http://www.w3.org/2000/svg" viewBox="0 0 512 512" fill="#fff"><path d="M433.231 39.385h-68.923v-9.846c0-5.437-4.409-9.846-9.846-9.846h-59.091C286.139 7.419 271.533 0 256 0s-30.139 7.419-39.371 19.692h-59.091c-5.437 0-9.846 4.409-9.846 9.846v9.846H78.769c-5.437 0-9.846 4.409-9.846 9.846v452.923c0 5.437 4.409 9.846 9.846 9.846h354.462c5.437 0 9.846-4.409 9.846-9.846V49.231c0-5.437-4.409-9.846-9.846-9.846zm-265.846 0h54.513a9.846 9.846 0 0 0 8.522-4.915c5.275-9.115 15.076-14.777 25.58-14.777 10.504 0 20.306 5.663 25.579 14.777a9.844 9.844 0 0 0 8.522 4.915h54.514V78.77h-177.23V39.385zm256 413.538h-49.231c-5.437 0-9.846 4.409-9.846 9.846s4.409 9.846 9.846 9.846h49.231v19.692H88.615V59.077h59.077v29.538c0 5.437 4.409 9.846 9.846 9.846h196.923c5.437 0 9.846-4.409 9.846-9.846V59.077h59.077v393.846z"/><path d="M203.151 130.22c-4.212-3.439-10.414-2.814-13.854 1.398l-40.418 49.492-22.943-29.602c-3.331-4.298-9.516-5.083-13.814-1.751-4.298 3.331-5.082 9.516-1.751 13.814l30.523 39.385a9.844 9.844 0 0 0 7.656 3.813h.126a9.847 9.847 0 0 0 7.626-3.618l48.246-59.077c3.44-4.211 2.815-10.414-1.397-13.854zm190.695 7.626H236.308c-5.437 0-9.846 4.409-9.846 9.846s4.409 9.846 9.846 9.846h157.538c5.437 0 9.846-4.409 9.846-9.846s-4.409-9.846-9.846-9.846zm-98.461 39.385h-59.077c-5.437 0-9.846 4.409-9.846 9.846s4.409 9.846 9.846 9.846h59.077c5.437 0 9.846-4.409 9.846-9.846s-4.409-9.846-9.846-9.846zm-92.234 71.143c-4.212-3.439-10.414-2.814-13.854 1.398l-40.418 49.492-22.943-29.602c-3.331-4.298-9.516-5.083-13.814-1.751-4.298 3.331-5.082 9.516-1.751 13.814l30.523 39.385a9.844 9.844 0 0 0 7.656 3.813h.126a9.847 9.847 0 0 0 7.626-3.618l48.246-59.077c3.44-4.212 2.815-10.415-1.397-13.854zM393.846 256H236.308c-5.437 0-9.846 4.409-9.846 9.846s4.409 9.846 9.846 9.846h157.538c5.437 0 9.846-4.409 9.846-9.846S399.283 256 393.846 256zm-98.461 39.385h-59.077c-5.437 0-9.846 4.409-9.846 9.846s4.409 9.846 9.846 9.846h59.077c5.437 0 9.846-4.409 9.846-9.846s-4.409-9.846-9.846-9.846zm-92.234 71.143c-4.212-3.439-10.414-2.814-13.854 1.398l-40.418 49.492-22.943-29.602c-3.331-4.298-9.516-5.083-13.814-1.751-4.298 3.331-5.082 9.516-1.751 13.814l30.523 39.385a9.844 9.844 0 0 0 7.656 3.813h.126a9.847 9.847 0 0 0 7.626-3.618l48.246-59.077c3.44-4.212 2.815-10.415-1.397-13.854zm190.695 7.626H236.308c-5.437 0-9.846 4.409-9.846 9.846s4.409 9.846 9.846 9.846h157.538c5.437 0 9.846-4.409 9.846-9.846s-4.409-9.846-9.846-9.846zm-98.461 39.384h-59.077c-5.437 0-9.846 4.409-9.846 9.846s4.409 9.846 9.846 9.846h59.077c5.437 0 9.846-4.409 9.846-9.846 0-5.436-4.409-9.846-9.846-9.846zm56.191 42.27a9.914 9.914 0 0 0-6.96-2.885 9.916 9.916 0 0 0-6.961 2.885c-1.831 1.832-2.885 4.372-2.885 6.961s1.053 5.13 2.885 6.96a9.923 9.923 0 0 0 6.961 2.886c2.59 0 5.13-1.054 6.96-2.886 1.832-1.83 2.886-4.371 2.886-6.96s-1.054-5.13-2.886-6.961z"/></svg>