<svg viewBox="-4 0 511 512" xmlns="http://www.w3.org/2000/svg" fill="#fff"><path d="M252.691 0c12.024 0 20.32 9.48 28.54 18.871 4.867 5.563 9.69 11.074 12.644 11.61 3.023.55 9.516-3.055 15.969-6.641 10.676-5.934 21.293-11.828 32.164-7.781 10.992 4.093 15.11 15.617 19.21 27.101 2.43 6.797 4.848 13.57 7.16 14.926 2.317 1.355 9.438.11 16.548-1.133 11.937-2.09 23.86-4.176 32.71 3.29 8.805 7.429 8.75 19.558 8.696 31.687-.031 7.16-.066 14.32 1.664 16.37 1.73 2.055 8.785 3.243 15.844 4.43 11.98 2.02 23.98 4.04 29.851 14.06 5.856 9.995 1.817 21.397-2.238 32.839-2.433 6.863-4.875 13.75-3.89 16.394.984 2.637 7.23 6.27 13.507 9.922 10.64 6.188 21.344 12.41 23.465 24.094 2.086 11.484-5.504 21.035-13.16 30.676-4.695 5.914-9.434 11.879-9.434 15.285 0 3.41 4.739 9.375 9.434 15.29 7.656 9.636 15.246 19.187 13.16 30.67-2.12 11.685-12.824 17.911-23.465 24.099-6.277 3.648-12.523 7.28-13.507 9.921-.985 2.645 1.457 9.532 3.89 16.395 4.055 11.441 8.094 22.844 2.238 32.836-5.87 10.023-17.87 12.043-29.851 14.059-7.059 1.19-14.113 2.378-15.844 4.43-1.73 2.054-1.695 9.214-1.664 16.374.055 12.13.11 24.258-8.695 31.688-8.852 7.465-20.774 5.379-32.711 3.289-7.11-1.242-14.23-2.489-16.547-1.133-2.313 1.355-4.73 8.129-7.16 14.926-4.102 11.484-8.219 23.008-19.211 27.101-10.871 4.047-21.488-1.851-32.164-7.78-6.453-3.587-12.942-7.192-15.969-6.642-2.953.536-7.777 6.047-12.645 11.606-8.218 9.39-16.515 18.871-28.539 18.871-12.02 0-20.316-9.48-28.539-18.871-4.863-5.563-9.687-11.074-12.644-11.61-3.024-.55-9.512 3.055-15.969 6.641-10.676 5.934-21.289 11.828-32.16 7.781-10.996-4.093-15.11-15.617-19.215-27.101-2.426-6.793-4.848-13.57-7.16-14.926-2.313-1.355-9.434-.11-16.547 1.137-11.937 2.086-23.86 4.172-32.71-3.293-8.806-7.43-8.75-19.559-8.696-31.688.035-7.16.066-14.32-1.664-16.37-1.73-2.055-8.782-3.243-15.844-4.43-11.98-2.016-23.98-4.04-29.852-14.06-5.851-9.995-1.812-21.397 2.243-32.839 2.433-6.863 4.87-13.75 3.886-16.394-.98-2.637-7.226-6.27-13.507-9.922-10.637-6.188-21.344-12.41-23.461-24.094-2.086-11.484 5.5-21.04 13.156-30.676 4.699-5.914 9.437-11.879 9.437-15.289 0-3.406-4.738-9.371-9.437-15.285-7.656-9.64-15.242-19.188-13.156-30.676 2.117-11.683 12.824-17.906 23.46-24.094 6.282-3.652 12.528-7.285 13.508-9.921.985-2.645-1.453-9.532-3.886-16.395-4.055-11.441-8.098-22.844-2.243-32.836 5.872-10.023 17.872-12.043 29.852-14.059 7.062-1.19 14.113-2.378 15.844-4.43 1.73-2.054 1.699-9.214 1.664-16.374-.055-12.13-.11-24.262 8.695-31.684 8.852-7.465 20.774-5.383 32.711-3.293 7.113 1.242 14.234 2.489 16.547 1.133 2.312-1.352 4.734-8.129 7.16-14.926 4.102-11.48 8.223-23.008 19.215-27.101 10.871-4.047 21.484 1.851 32.16 7.78 6.457 3.587 12.945 7.192 15.969 6.642 2.957-.536 7.781-6.047 12.644-11.606C232.375 9.481 240.672 0 252.692 0zm123.922 129.176c-5.523 0-10 4.476-10 10 0 2.46.89 4.715 2.367 6.457v.004l-.003-.004.03.035c.204.238.419.465.641.68 26.895 28.672 43.364 67.238 43.364 109.652 0 44.273-17.942 84.352-46.953 113.363-29.012 29.016-69.094 46.957-113.368 46.957-18.953 0-37.136-3.289-54.011-9.328a10.673 10.673 0 0 0-.93-.332l-.023-.012v.004a10.033 10.033 0 0 0-2.903-.43c-5.52 0-10 4.477-10 10 0 4.532 3.016 8.356 7.145 9.587 18.972 6.785 39.418 10.484 60.722 10.484 49.786 0 94.86-20.184 127.485-52.809 32.629-32.629 52.808-77.699 52.808-127.484 0-47.64-18.48-90.96-48.656-123.191a9.987 9.987 0 0 0-7.715-3.633zm-30.18-25.383c-5.519 0-10 4.477-10 10 0 5.52 4.481 10 10 10 5.524 0 10-4.48 10-10 0-5.523-4.476-10-10-10zm-32.456-17.398c-19.133-6.915-39.766-10.688-61.286-10.688-49.785 0-94.855 20.18-127.484 52.809C92.582 161.14 72.398 206.215 72.398 256c0 47.54 18.403 90.777 48.465 122.988a9.986 9.986 0 0 0 7.68 3.594c5.523 0 10-4.477 10-10 0-2.453-.883-4.7-2.352-6.437v-.008l-.039-.043a8.938 8.938 0 0 0-.617-.656C108.762 336.784 92.371 298.308 92.371 256c0-44.273 17.945-84.355 46.957-113.363C168.34 113.62 208.422 95.68 252.691 95.68c19.133 0 37.48 3.351 54.493 9.5h.004a9.966 9.966 0 0 0 3.914.793c5.523 0 10-4.477 10-10 0-4.524-3.004-8.344-7.125-9.578zM158.949 388.207c-5.52 0-10 4.477-10 10s4.48 10 10 10c5.524 0 10-4.477 10-10s-4.476-10-10-10zm35.524-230.488c-11.465 0-21.844 4.644-29.36 12.16-7.511 7.516-12.16 17.894-12.16 29.36 0 11.46 4.649 21.843 12.16 29.355 7.516 7.515 17.895 12.164 29.36 12.164s21.843-4.649 29.359-12.164c7.512-7.512 12.16-17.895 12.16-29.356 0-11.465-4.648-21.843-12.16-29.36-7.516-7.515-17.894-12.16-29.36-12.16zM209.71 184a21.483 21.483 0 0 0-15.238-6.312c-5.95 0-11.34 2.414-15.239 6.312s-6.308 9.285-6.308 15.238c0 5.95 2.41 11.34 6.308 15.239a21.502 21.502 0 0 0 15.239 6.308 21.48 21.48 0 0 0 15.238-6.308 21.486 21.486 0 0 0 6.309-15.239A21.48 21.48 0 0 0 209.71 184zm92.894-21.758l-116.44 176.594c-3.017 4.59-1.743 10.754 2.847 13.77 4.59 3.015 10.754 1.742 13.77-2.848l116.44-176.594c3.016-4.59 1.743-10.754-2.847-13.77s-10.754-1.742-13.77 2.848zm8.31 109c-11.466 0-21.849 4.649-29.36 12.16-7.512 7.516-12.16 17.899-12.16 29.36 0 11.465 4.648 21.843 12.16 29.36 7.515 7.51 17.894 12.16 29.36 12.16 11.464 0 21.843-4.65 29.355-12.16 7.515-7.517 12.164-17.895 12.164-29.36s-4.649-21.844-12.164-29.36c-7.512-7.511-17.891-12.16-29.356-12.16zm15.233 26.281a21.486 21.486 0 0 0-15.234-6.308 21.48 21.48 0 0 0-15.238 6.308 21.49 21.49 0 0 0-6.313 15.239A21.48 21.48 0 0 0 295.675 328a21.48 21.48 0 0 0 15.238 6.309c5.95 0 11.34-2.41 15.234-6.309a21.466 21.466 0 0 0 6.313-15.238 21.48 21.48 0 0 0-6.313-15.239zM266.254 31.98c-5.23-5.976-10.508-12.007-13.559-12.007-3.054 0-8.332 6.03-13.562 12.007-7.16 8.18-14.262 16.293-24.113 18.083-10 1.816-19.602-3.52-29.153-8.829-6.656-3.699-13.277-7.375-15.543-6.53-2.234.831-4.8 8.01-7.355 15.163-3.637 10.176-7.258 20.32-15.899 25.38-8.699 5.097-19.379 3.23-30.043 1.362-7.363-1.285-14.722-2.574-16.402-1.152-1.742 1.469-1.71 8.934-1.676 16.395.051 10.84.098 21.68-6.347 29.324-6.426 7.62-17.098 9.418-27.782 11.215-7.394 1.246-14.808 2.492-15.96 4.464-1.15 1.958 1.359 9.04 3.878 16.141 3.625 10.23 7.262 20.492 3.73 29.969-3.484 9.355-12.8 14.773-22.167 20.223-6.68 3.882-13.403 7.792-13.867 10.363-.473 2.605 4.332 8.652 9.18 14.758 6.874 8.652 13.808 17.379 13.808 27.691 0 10.316-6.934 19.04-13.809 27.695-4.847 6.102-9.652 12.149-9.18 14.758.465 2.57 7.188 6.477 13.868 10.363 9.367 5.446 18.683 10.864 22.168 20.22 3.531 9.48-.106 19.741-3.73 29.972-2.52 7.101-5.028 14.18-3.88 16.14 1.153 1.97 8.563 3.22 15.961 4.461 10.688 1.801 21.356 3.594 27.782 11.22 6.445 7.64 6.398 18.48 6.347 29.323-.035 7.461-.066 14.922 1.676 16.395 1.684 1.418 9.04.133 16.402-1.156 10.664-1.864 21.344-3.735 30.043 1.363 8.64 5.059 12.266 15.203 15.899 25.379 2.554 7.152 5.12 14.336 7.355 15.164 2.266.844 8.887-2.832 15.543-6.531 9.551-5.305 19.153-10.641 29.153-8.825 9.855 1.786 16.953 9.899 24.113 18.082 5.23 5.977 10.508 12.008 13.562 12.008 3.051 0 8.328-6.031 13.559-12.008 7.16-8.183 14.262-16.296 24.11-18.082 10-1.816 19.605 3.52 29.156 8.825 6.656 3.699 13.277 7.375 15.543 6.53 2.234-.827 4.8-8.01 7.355-15.163 3.637-10.176 7.258-20.317 15.895-25.38 8.703-5.097 19.378-3.23 30.042-1.362 7.368 1.289 14.723 2.578 16.41 1.156 1.739-1.473 1.708-8.934 1.673-16.395-.051-10.84-.098-21.683 6.347-29.324 6.426-7.625 17.094-9.418 27.777-11.219 7.399-1.242 14.813-2.492 15.965-4.46 1.149-1.961-1.359-9.04-3.879-16.141-3.625-10.23-7.261-20.492-3.73-29.973 3.48-9.355 12.8-14.773 22.164-20.219 6.684-3.886 13.402-7.793 13.871-10.363.473-2.61-4.332-8.656-9.18-14.758-6.875-8.656-13.808-17.379-13.808-27.695 0-10.312 6.933-19.04 13.808-27.691 4.848-6.106 9.653-12.153 9.18-14.758-.469-2.57-7.187-6.48-13.871-10.363-9.363-5.45-18.684-10.868-22.164-20.223-3.531-9.477.105-19.738 3.73-29.969 2.52-7.101 5.028-14.183 3.88-16.14-1.153-1.973-8.567-3.22-15.966-4.465-10.683-1.797-21.351-3.594-27.777-11.215-6.445-7.645-6.398-18.485-6.348-29.324.036-7.461.067-14.926-1.671-16.395-1.688-1.422-9.043-.133-16.41 1.152-10.665 1.868-21.34 3.735-30.04-1.363-8.64-5.058-12.265-15.203-15.898-25.379-2.555-7.152-5.121-14.332-7.356-15.164-2.265-.844-8.886 2.832-15.542 6.531-9.555 5.309-19.157 10.645-29.157 8.829-9.851-1.79-16.949-9.903-24.11-18.083zm0 0" fill-rule="evenodd"/></svg>