<svg xmlns="http://www.w3.org/2000/svg" viewBox="0 0 512 512" width="512" height="512" fill="#fff"><path d="M52.169 296.865c4.9 17.174 17.319 31.701 33.879 39.046a7.487 7.487 0 0 0 6.082 0c16.565-7.347 28.987-21.879 33.884-39.059a43.688 43.688 0 0 1 13.347 8.427 7.501 7.501 0 0 0 10.165-11.032 58.572 58.572 0 0 0-27.382-14.206c-.078-.019-.152-.044-.231-.061-.135-.028-.271-.047-.406-.075-.698-.143-1.4-.271-2.104-.388-.273-.046-.546-.093-.82-.135a60.193 60.193 0 0 0-2.166-.284c-.263-.03-.526-.065-.789-.092a59.99 59.99 0 0 0-2.25-.177c-.241-.015-.481-.039-.722-.051a60.194 60.194 0 0 0-2.948-.077H68.476c-3.113 0-6.169.248-9.153.717-.111.017-.22.041-.331.059-.876.143-1.747.3-2.609.481-.039.008-.078.013-.116.021-.06.013-.117.032-.177.046-26.481 5.704-46.393 29.293-46.393 57.455v49.583c0 6.341 5.159 11.5 11.5 11.5h100.275c4.142 0 7.5-3.357 7.5-7.5s-3.358-7.5-7.5-7.5H24.696V337.48c0-18.375 11.388-34.133 27.473-40.615zm57.533-3.162c.535 0 1.068.018 1.6.037-3.542 11.453-11.552 21.252-22.213 26.972-10.66-5.719-18.669-15.517-22.212-26.968.531-.019 1.062-.041 1.598-.041h41.227zM50.102 130c11.17-8.93 24.652-13.649 38.988-13.649a62.381 62.381 0 0 1 41.684 15.932 7.47 7.47 0 0 0 5.002 1.914 7.5 7.5 0 0 0 5.007-13.086 77.365 77.365 0 0 0-51.693-19.76c-17.521 0-34.693 6.014-48.354 16.933A7.5 7.5 0 1 0 50.102 130zm38.987 138.297a59.05 59.05 0 0 0 28.068-7.064H142a7.5 7.5 0 0 0 7.5-7.5 7.5 7.5 0 0 0-7.5-7.5h-6.753c8.274-10.208 13.245-23.198 13.245-37.331v-10.903a7.5 7.5 0 0 0-7.5-7.5H84.728a18.886 18.886 0 0 1-10.821-3.391 18.92 18.92 0 0 1-6.947-8.988c-3.522-9.512-12.699-15.903-22.836-15.903h-6.632a7.5 7.5 0 0 0-7.452 6.653 55.527 55.527 0 0 0-.354 6.246v33.786c0 14.133 4.971 27.123 13.245 37.331H20.618c3.741-9.162 5.972-20.45 5.972-29.171v-38.22c0-9.847 2.224-19.265 6.611-27.991a7.5 7.5 0 1 0-13.403-6.736c-5.447 10.836-8.209 22.52-8.209 34.728v38.22c0 12.665-5.659 27.722-9.329 31.304a7.501 7.501 0 0 0 5.239 12.867H61.02a59.068 59.068 0 0 0 28.069 7.063zm-44.403-91.064a9.394 9.394 0 0 1 8.206 6.091c2.413 6.527 6.71 12.088 12.439 16.09a33.826 33.826 0 0 0 19.396 6.084h48.765v3.403c0 24.479-19.919 44.396-44.403 44.396s-44.403-19.916-44.403-44.396v-31.668zm415.087 102.796c-.061-.015-.119-.034-.18-.047l-.119-.022a59.593 59.593 0 0 0-2.582-.476c-.12-.02-.238-.045-.358-.064a58.999 58.999 0 0 0-9.151-.716h-41.227c-1.021 0-2.038.028-3.05.08-.067.003-.134.011-.202.015-14.478.784-27.98 6.79-38.313 17.121a7.5 7.5 0 0 0 10.607 10.607 43.679 43.679 0 0 1 14.643-9.686c4.894 17.184 17.318 31.722 33.886 39.07a7.494 7.494 0 0 0 6.082 0c16.561-7.345 28.98-21.872 33.879-39.045 16.085 6.481 27.472 22.24 27.472 40.617v46.083h-100.3c-4.143 0-7.5 3.357-7.5 7.5s3.357 7.5 7.5 7.5h103.8c6.341 0 11.5-5.159 11.5-11.5v-49.583c.002-28.161-19.907-51.749-46.387-57.454zm-33.003 40.683c-10.661-5.719-18.671-15.518-22.213-26.97.532-.019 1.064-.039 1.599-.039h41.227c.536 0 1.067.021 1.599.041-3.542 11.451-11.552 21.249-22.212 26.968zm0-52.411c15.263 0 29.196-5.79 39.729-15.284a33.3 33.3 0 0 0 12.172 2.315c18.378 0 33.33-14.952 33.33-33.33 0-15.798-11.052-29.054-25.827-32.468v-14.415a55.279 55.279 0 0 0-5.494-24.092c-8.994-18.637-28.083-31.527-50.125-31.527h-7.57c-30.668 0-55.618 24.95-55.618 55.617v33.78c-.001 32.755 26.648 59.404 59.403 59.404zM497 222.002c0 10.107-8.223 18.33-18.33 18.33-.499 0-.995-.026-1.488-.066a59.034 59.034 0 0 0 8.982-31.029c.001-.061.01-.122.01-.183v-3.758c6.372 2.873 10.826 9.273 10.826 16.706zm-74.015-87.5h7.57c16.797 0 31.246 10.249 37.421 24.822a40.388 40.388 0 0 1 3.196 15.793v21.016l-.002.039.002.039v4.482c-59.079-7.737-65.368-38.136-65.601-39.39-.487-3.754-3.67-6.438-7.402-6.438-.167 0-.336.005-.505.016-3.946.255-7.003 3.628-7.003 7.583v18.111h-8.295v-5.455c0-22.397 18.222-40.618 40.619-40.618zm-40.619 61.072h15.795a7.5 7.5 0 0 0 7.447-6.609c11.263 11.097 30.913 22.541 65.035 26.777-3.301 21.246-21.717 37.559-43.873 37.559-24.484 0-44.403-19.919-44.403-44.403v-13.324z"/><path d="M356.963 179.805a104.256 104.256 0 0 0 2.487-22.593c0-15-3.143-29.468-9.341-43.003a7.5 7.5 0 0 0-13.638 6.246c5.295 11.561 7.979 23.928 7.979 36.757a89.19 89.19 0 0 1-2.141 19.388c-.009.04-.018.079-.025.119-13.601 65.988-16.609 84.527-5.778 131.525a82.26 82.26 0 0 0-15.729-9.708c-.116-.062-.229-.129-.349-.185a82.319 82.319 0 0 0-2.441-1.079c-.097-.042-.195-.081-.292-.122a81.307 81.307 0 0 0-15.203-4.714h-.003a81.232 81.232 0 0 0-4.019-.72l-.038-.006a81.556 81.556 0 0 0-4.049-.516l-.088-.008a82.388 82.388 0 0 0-4.079-.311l-.09-.003a84.293 84.293 0 0 0-4.153-.106h-59.945c-1.39 0-2.774.038-4.152.106l-.09.003a81.353 81.353 0 0 0-4.083.312l-.08.008c-1.36.138-2.713.312-4.06.517l-.025.004a81.086 81.086 0 0 0-19.225 5.433l-.303.125c-.816.347-1.629.703-2.437 1.078-.119.055-.23.122-.346.183a82.15 82.15 0 0 0-15.734 9.711c10.83-46.996 7.824-65.539-5.777-131.526l-.025-.119a89.218 89.218 0 0 1-2.141-19.388c0-48.771 39.679-88.45 88.45-88.45 24.443 0 48.031 10.262 64.715 28.155a7.501 7.501 0 0 0 10.971-10.231C312.175 65.763 284.589 53.762 256 53.762c-57.042 0-103.45 46.407-103.45 103.45 0 7.574.837 15.175 2.487 22.594 15.29 74.185 17.287 83.932-1.79 155.186a81.522 81.522 0 0 0-9.28 37.836v67.911c0 9.649 7.851 17.5 17.5 17.5h189.066c9.649 0 17.5-7.851 17.5-17.5v-67.91a81.527 81.527 0 0 0-9.28-37.838c-19.077-71.254-17.08-81.002-1.79-155.186zM205.399 309.027c.178-.058.352-.124.531-.18.174-.055.348-.105.522-.158a67.87 67.87 0 0 1 2.553-.727c.173-.045.345-.091.518-.135a65.803 65.803 0 0 1 2.958-.684l.065-.014a66.449 66.449 0 0 1 6.358-.98c.224-.024.449-.044.674-.066.074-.007.149-.01.224-.017a36.736 36.736 0 0 0 16.924 23.827l-4.961 27.259-26.366-48.125zm37.81 69.015l9.28-50.986a7.5 7.5 0 0 0-4.611-8.313c-6.015-2.389-10.515-7.152-12.608-12.976h41.46c-2.093 5.825-6.592 10.587-12.607 12.976a7.5 7.5 0 0 0-4.611 8.313l9.28 50.986L256 401.392l-12.791-23.35zm37.027-20.889l-4.962-27.259a36.73 36.73 0 0 0 16.924-23.827c.075.007.151.01.225.017a66.92 66.92 0 0 1 7.084 1.057c1.001.206 1.992.438 2.976.688.167.042.334.087.501.13.866.228 1.725.473 2.577.734.166.051.333.099.499.151.181.057.358.124.539.183l-26.363 48.126zm72.797 83.585c0 1.379-1.121 2.5-2.5 2.5H161.467a2.503 2.503 0 0 1-2.5-2.5v-67.911c0-24.44 13.147-45.86 32.735-57.581l57.72 105.359a7.5 7.5 0 0 0 13.155 0l57.72-105.359c19.589 11.722 32.736 33.142 32.736 57.582v67.91z"/><path d="M327.697 199.494c-28.715-7.445-55.3-21.185-76.883-39.732-18.263-15.694-32.829-34.748-41.016-53.653a7.501 7.501 0 0 0-12.403-2.097c-12.353 13.431-19.155 30.883-19.155 49.144v45.724c0 42.876 34.882 77.759 77.759 77.759 39.672 0 72.891-29.687 77.269-69.055a7.499 7.499 0 0 0-5.571-8.09zM256 261.638c-34.605 0-62.759-28.153-62.759-62.759v-45.724a57.468 57.468 0 0 1 8.316-29.837c18.544 33.805 56.801 71.642 115.785 88.879-6.128 28.592-31.467 49.441-61.342 49.441z"/></svg>