<svg xmlns="http://www.w3.org/2000/svg" viewBox="0 0 512 512" fill="#fff"><path d="M271.12 231.982a7.499 7.499 0 0 0-7.5 7.5v8.656c0 4.201-3.418 7.619-7.619 7.619-4.2 0-7.618-3.418-7.618-7.619v-8.656c0-4.143-3.357-7.5-7.5-7.5s-7.5 3.357-7.5 7.5v8.656c0 12.473 10.146 22.62 22.619 22.62 12.473 0 22.62-10.146 22.62-22.62v-8.656a7.502 7.502 0 0 0-7.502-7.5zm76.11-25.51a7.498 7.498 0 0 0-10.564-.938c-11.847 9.917-29.142 9.904-40.975 0a7.498 7.498 0 0 0-10.564.938 7.498 7.498 0 0 0 .938 10.564c17.419 14.582 42.832 14.563 60.23 0a7.5 7.5 0 0 0 .935-10.564zm-120.355 0a7.5 7.5 0 0 0-10.565-.938c-11.848 9.917-29.142 9.904-40.974 0a7.498 7.498 0 0 0-10.564.938 7.498 7.498 0 0 0 .938 10.564c8.424 7.052 19.118 10.935 30.114 10.935s21.69-3.883 30.114-10.935a7.499 7.499 0 0 0 .937-10.564zm29.626 75.957c-10.326 0-18.729 8.401-18.729 18.729v7.887c0 10.326 8.401 18.728 18.729 18.728 10.326 0 18.728-8.401 18.728-18.728v-7.887c-.001-10.327-8.402-18.729-18.728-18.729zm3.727 26.615a3.732 3.732 0 0 1-3.728 3.728 3.732 3.732 0 0 1-3.728-3.728v-7.887a3.732 3.732 0 0 1 3.728-3.728 3.732 3.732 0 0 1 3.728 3.728v7.887z"/><path d="M443.719 438.543c-4.328-15.672-15.11-29.064-29.585-36.738-5.646-2.995-11.415-5.784-17.2-8.38 25.941-59.469 47.291-140.53 42.43-204.958 7.673-16.372 18.214-26.736 17.251-46.428-.005-.1-2.316-47.49-2.323-47.59a50.02 50.02 0 0 0-9.911-27.896c-1.682-2.256-2.607-5.185-2.607-8.247V17.3c0-9.528-7.752-17.28-17.28-17.28H383.3c-10.752 0-19.5 8.748-19.5 19.5v18.319c-8.185-6.492-16.868-12.247-25.969-17.164a7.5 7.5 0 0 0-7.129 13.197c11.87 6.413 22.991 14.365 33.097 23.665v13.446c-7.911 10.865-6.98 17.776-9.284 22.293-5.316 10.419-17.413 19.758-26.28 25.997-14.417 10.403-12.585 26.426-2.631 35.45-34.127-15.114-72.405-39.677-97.922-67.321-4.442-4.795-12.313-3.92-15.549 1.829-3.171 5.64-11.56 19.136-25.663 32.251-4.123-3.733-27.839-18.36-30.574-33.355-1.121-6.124-4.084-12.19-7.691-17.145V57.538c42.543-39.132 99.769-51.235 151.312-36.415a7.499 7.499 0 0 0 9.28-5.136 7.499 7.499 0 0 0-5.136-9.28c-52.515-15.1-110.255-4.689-155.456 31.119V19.52c0-10.752-8.748-19.5-19.5-19.5H87.507c-9.528 0-17.28 7.752-17.28 17.28-.773 39.22 1.864 43.257-2.608 49.253a50.026 50.026 0 0 0-9.914 28.018 7.5 7.5 0 0 0 7.195 7.793c4.126.159 7.627-3.057 7.793-7.195.745-18.704 12.534-19.724 12.534-36.862V17.3a2.282 2.282 0 0 1 2.28-2.28h41.194c2.439 0 4.5 2.061 4.5 4.5 0 67.705-1.752 52.213 4.535 62.809 4.855 8.174 2.375 9.903 6.388 17.767 7.697 15.084 25.604 27.829 30.907 31.376.499.441 2.601 1.745 3.67 3.938 1.439 3.11-.727 6.199-.701 6.099-.996 1.699-2.369 2.803-3.91 3.449-4.455 1.866-8.325-.053-12.278-2.133-14.418-7.892-21.12-16.102-29.688-24.609-8.134-8.244-21.999-4.551-25.28 5.078l-5.692 16.8c-5.552 12.483.465 19.362 13.839 59.535a9.043 9.043 0 0 1-4.729 11.216c-3.798 1.77-8.333.271-10.325-3.415l-13.062-24.167v-.001c-9.474-19.468-17.201-26.312-16.507-40.491l.568-11.6a7.5 7.5 0 0 0-7.124-7.858c-4.131-.182-7.655 2.987-7.858 7.124l-.568 11.601c-.961 19.699 9.587 30.074 17.251 46.428-4.857 64.417 16.465 145.438 42.431 204.96-5.79 2.596-11.561 5.385-17.202 8.377-14.472 7.675-25.255 21.065-29.584 36.737l-11.694 42.342c-2.06 7.46-.553 15.27 4.134 21.427 4.687 6.16 11.812 9.691 19.552 9.691H316.18c4.143 0 7.5-3.357 7.5-7.5s-3.357-7.5-7.5-7.5H134.693v-36.733c0-4.143-3.357-7.5-7.5-7.5s-7.5 3.357-7.5 7.5V497h-39.42c-6.326 0-10.912-6.02-9.227-12.121l11.694-42.342c3.235-11.713 11.31-21.73 22.152-27.48 34.37-18.228 74.647-28.848 92.188-32.931v6.209c0 4.68 1.159 9.275 3.148 13.2 3.994 7.85 20.654 27.679 39.134 40.88a28.63 28.63 0 0 0 33.274 0c14.091-10.066 26.999-23.428 36.74-36.951 5.431-7.536 5.734-14.342 5.542-23.341 29.948 6.961 64.718 18.362 92.188 32.933 10.844 5.751 18.918 15.766 22.153 27.48l11.694 42.342c1.685 6.097-2.896 12.121-9.228 12.121H392.31v-36.733c0-4.143-3.357-7.5-7.5-7.5s-7.5 3.357-7.5 7.5V497h-26.13c-4.143 0-7.5 3.357-7.5 7.5s3.357 7.5 7.5 7.5h80.547c16.238 0 28.013-15.45 23.688-31.116l-11.696-42.341zM336.968 131.471c13.407-8.951 30.522-23.991 33.72-39.827 2.309-11.443 8.11-12.66 8.11-18.105V19.52c0-2.439 2.061-4.5 4.5-4.5h41.193a2.282 2.282 0 0 1 2.28 2.28v41.006c0 17.586 11.115 16.307 12.55 37.119.074 1.001.086.937.081.659.098 2.35.541 12.18 2.229 46.69a32.724 32.724 0 0 1-3.898 17.164l-25.672 47.492c-1.994 3.687-6.532 5.182-10.324 3.416a9.047 9.047 0 0 1-4.73-11.217l14.57-41.69a24.263 24.263 0 0 0-.731-17.844c-.034-.101-5.776-17.09-5.999-17.567-4.515-9.671-17.38-12.006-24.974-4.311-5.628 5.708-5.367 5.431-5.576 5.662-12.331 13.666-26.801 20.355-27.416 20.635-4.834 2.206-10.809 1.589-13.462-4.097-1.205-2.589 3.153-8.415 3.549-8.946zm52.353 44.683c-3.347-2.531-17.445-3.099-49.354-15.469 4.574.322 9.052-.658 13.141-2.526 1.814-.826 18.089-8.51 32.212-24.105 4.215-3.908 5.167-5.951 5.837-5.325l5.602 16.533c.311.912 2.034 3.787.658 7.728l-8.096 23.164zm-274.08-30.892l5.601-16.532c1.193-1.118 6.745 8.374 20.87 18.927-9.042 2.69-13.254 2.737-15.127 3.548-9.096 3.945-6.439 14.18-6.879 16.436-6.548-18.783-6.508-16.387-4.465-22.379zm81.839 221.467c-11.908 2.637-39.222 9.339-68.199 20.867-24.797-56.773-40.503-121.536-41.885-172.576 6.228 10.939 20.89 15.427 32.7 7.665 1.302 7.844-8.813 63.056 39.8 109.838a136.798 136.798 0 0 0 37.585 25.677v8.529zm96.854 34.324c-8.506 10.913-18.8 21.145-30.016 29.157a13.628 13.628 0 0 1-14.93.595c-10.937-6.575-31.047-27.989-35.209-35.748-2.264-4.224-1.698-4.981-1.698-30.979 27.752 9.048 59.189 9.338 87.838-.001 0 30.434 1.388 27.518-5.985 36.976zm-40.568-45.114l-.114-.002v.001l-.157-.003v-.001c-64.446-1.352-118.401-51.7-118.401-115.879l.012-75.255a118.618 118.618 0 0 0 23.312-7.052c21.303 10.282 38.221-7.616 36.031-22.883 13.199-11.697 22.262-24.027 27.459-32.142 33.013 33.977 91.29 69.735 155.795 85.369l.009 51.962c-.003 66.563-58.194 117.908-123.946 115.885zm61.553 10.786V358.2a136.75 136.75 0 0 0 37.588-25.678c48.636-46.804 38.491-101.95 39.8-109.836a22.95 22.95 0 0 0 32.697-7.667c-1.382 51.038-17.086 115.796-41.883 172.568-29.062-11.57-56.372-18.248-68.202-20.862z"/></svg>