<svg xmlns="http://www.w3.org/2000/svg" viewBox="0 0 511.999 511.999" fill="#fff"><path d="M511.939 330.321a38.355 38.355 0 0 0-15.485-28.749c-14.891-11.05-35.555-9.898-49.128 2.742l-82.559 76.887c.503-16.916-10.616-31.846-27.269-36.071L236.67 319.539a96.368 96.368 0 0 0-53.548 1.751l-69.703 22.63v-20.057c0-5.522-4.478-9.999-9.999-9.999H9.999c-5.522 0-9.999 4.478-9.999 9.999V501.98c0 5.522 4.478 9.999 9.999 9.999h93.422c5.522 0 9.999-4.478 9.999-9.999V364.947l75.878-24.635a76.416 76.416 0 0 1 42.453-1.39l100.829 25.591c7.831 1.988 12.933 9.266 12.13 17.308a16.144 16.144 0 0 1-16.114 14.585h-70.282c-5.522 0-9.999 4.478-9.999 9.999 0 5.522 4.478 9.999 9.999 9.999h21.542c.376.043.757.07 1.145.07h49.589c16.54 0 32.315-6.209 44.421-17.481l85.947-80.044c6.515-6.068 16.434-6.62 23.584-1.316a18.407 18.407 0 0 1 7.432 13.8 18.41 18.41 0 0 1-5.854 14.541l-118.4 110.22a43.85 43.85 0 0 1-29.968 11.789H182.796c-5.522 0-9.999 4.478-9.999 9.999 0 5.522 4.478 9.999 9.999 9.999h154.958c16.23 0 31.712-6.091 43.594-17.15l118.397-110.22a38.353 38.353 0 0 0 12.194-30.29zM93.422 491.981H19.998V333.863h73.423v158.118z"/><path d="M149.518 470.913a10.089 10.089 0 0 0-7.069-2.93c-2.641 0-5.21 1.069-7.079 2.93-1.86 1.86-2.93 4.44-2.93 7.069s1.069 5.21 2.93 7.068a10.098 10.098 0 0 0 7.079 2.931c2.63 0 5.2-1.07 7.069-2.931 1.859-1.859 2.93-4.439 2.93-7.068s-1.07-5.209-2.93-7.069zm-85.742-10.329a10.038 10.038 0 0 0-7.06-2.93c-2.64 0-5.22 1.06-7.079 2.93a10.054 10.054 0 0 0-2.92 7.069c0 2.63 1.061 5.21 2.92 7.069a10.103 10.103 0 0 0 7.079 2.93c2.63 0 5.2-1.07 7.06-2.93a10.045 10.045 0 0 0 2.939-7.069c0-2.64-1.07-5.209-2.939-7.069zM255.98.02c-49.622 0-89.993 40.371-89.993 89.993 0 16.541 13.457 29.998 29.998 29.998s29.998-13.457 29.998-29.998 13.457-29.998 29.998-29.998 29.998 13.457 29.998 29.998-13.457 29.998-29.998 29.998-29.998 13.457-29.998 29.998v42.997c0 16.541 13.457 29.998 29.998 29.998s29.998-13.457 29.998-29.998V174.87c35.69-12.598 59.995-46.446 59.995-84.857C345.973 40.39 305.602.02 255.98.02zm17.498 157.774a9.998 9.998 0 0 0-7.498 9.681v25.529c0 5.514-4.486 9.999-9.999 9.999-5.514 0-9.999-4.486-9.999-9.999v-42.997c0-5.514 4.486-9.999 9.999-9.999 27.568 0 49.996-22.428 49.996-49.996s-22.428-49.996-49.996-49.996-49.996 22.428-49.996 49.996c0 5.514-4.486 9.999-9.999 9.999-5.514 0-9.999-4.486-9.999-9.999 0-38.595 31.399-69.995 69.995-69.995 38.596 0 69.995 31.4 69.995 69.995-.002 31.925-21.59 59.798-52.499 67.782zm3.721 97.132c-5.576-5.592-13.31-8.798-21.219-8.798-7.908 0-15.643 3.207-21.2 8.779-5.591 5.576-8.797 13.31-8.797 21.218s3.207 15.643 8.787 21.209c5.586 5.586 13.316 8.788 21.21 8.788 7.895 0 15.626-3.204 21.209-8.788 5.586-5.586 8.788-13.316 8.788-21.209.001-7.893-3.202-15.624-8.778-21.199zm-14.153 28.268c-1.834 1.835-4.477 2.931-7.066 2.931-2.59 0-5.234-1.096-7.078-2.94-1.829-1.824-2.921-4.464-2.921-7.059 0-2.635 1.064-5.208 2.939-7.077 1.825-1.829 4.465-2.922 7.06-2.922 2.596 0 5.234 1.092 7.067 2.932 1.836 1.834 2.932 4.477 2.932 7.067s-1.096 5.232-2.933 7.068zM56.711 354.49c-5.522 0-9.999 4.478-9.999 9.999v63.497c0 5.522 4.477 9.999 9.999 9.999s9.999-4.478 9.999-9.999v-63.497c0-5.521-4.478-9.999-9.999-9.999z"/></svg>